<svg width="462" height="462" viewBox="0 0 462 462" fill="none" xmlns="http://www.w3.org/2000/svg">
<g clip-path="url(#clip0_179_86)">
<path fill-rule="evenodd" clip-rule="evenodd" d="M149.061 184.118C149.061 184.118 29.3774 68.8102 33.0844 101.333C35.9268 126.27 49.9778 240.208 56.3775 292H407.406C413.353 242.381 426.116 135.432 429.732 101.333C434.498 56.3924 319.052 184.118 319.052 184.118C319.052 184.118 251.797 55.5933 236.969 55.002C222.141 54.4107 149.061 184.118 149.061 184.118ZM404.312 343H60.0921V380.134C60.0921 391.732 69.4941 401.134 81.0921 401.134H383.312C394.91 401.134 404.312 391.732 404.312 380.134V343Z" fill="#FFB800"/>
</g>
<defs>
<clipPath id="clip0_179_86">
<rect width="462" height="462" fill="white"/>
</clipPath>
</defs>
</svg>
