<svg id="visual" viewBox="0 0 900 900" width="900" height="900" xmlns="http://www.w3.org/2000/svg" xmlns:xlink="http://www.w3.org/1999/xlink" version="1.1"><rect x="0" y="0" width="900" height="900" fill="#001220"></rect><defs><linearGradient id="grad1_0" x1="0%" y1="0%" x2="100%" y2="100%"><stop offset="30%" stop-color="#c62368" stop-opacity="1"></stop><stop offset="70%" stop-color="#c62368" stop-opacity="1"></stop></linearGradient></defs><defs><linearGradient id="grad1_1" x1="0%" y1="0%" x2="100%" y2="100%"><stop offset="30%" stop-color="#c62368" stop-opacity="1"></stop><stop offset="70%" stop-color="#4b2d66" stop-opacity="1"></stop></linearGradient></defs><defs><linearGradient id="grad1_2" x1="0%" y1="0%" x2="100%" y2="100%"><stop offset="30%" stop-color="#001220" stop-opacity="1"></stop><stop offset="70%" stop-color="#4b2d66" stop-opacity="1"></stop></linearGradient></defs><defs><linearGradient id="grad2_0" x1="0%" y1="0%" x2="100%" y2="100%"><stop offset="30%" stop-color="#c62368" stop-opacity="1"></stop><stop offset="70%" stop-color="#c62368" stop-opacity="1"></stop></linearGradient></defs><defs><linearGradient id="grad2_1" x1="0%" y1="0%" x2="100%" y2="100%"><stop offset="30%" stop-color="#4b2d66" stop-opacity="1"></stop><stop offset="70%" stop-color="#c62368" stop-opacity="1"></stop></linearGradient></defs><defs><linearGradient id="grad2_2" x1="0%" y1="0%" x2="100%" y2="100%"><stop offset="30%" stop-color="#4b2d66" stop-opacity="1"></stop><stop offset="70%" stop-color="#001220" stop-opacity="1"></stop></linearGradient></defs><g transform="translate(900, 0)"><path d="M0 604.6C-106.5 589.2 -213.1 573.9 -302.3 523.6C-391.5 473.3 -463.5 388.1 -511 295C-558.5 201.9 -581.5 101 -604.6 0L0 0Z" fill="#172447"></path><path d="M0 403.1C-71 392.8 -142 382.6 -201.5 349.1C-261 315.5 -309 258.7 -340.6 196.7C-372.3 134.6 -387.7 67.3 -403.1 0L0 0Z" fill="#8a2b72"></path><path d="M0 201.5C-35.5 196.4 -71 191.3 -100.8 174.5C-130.5 157.8 -154.5 129.4 -170.3 98.3C-186.2 67.3 -193.8 33.7 -201.5 0L0 0Z" fill="#c62368"></path></g><g transform="translate(0, 900)"><path d="M0 -604.6C81 -546.9 161.9 -489.2 257.5 -446C353.1 -402.8 463.3 -374.2 523.6 -302.3C583.9 -230.4 594.2 -115.2 604.6 0L0 0Z" fill="#172447"></path><path d="M0 -403.1C54 -364.6 107.9 -326.1 171.7 -297.3C235.4 -268.6 308.9 -249.5 349.1 -201.5C389.2 -153.6 396.1 -76.8 403.1 0L0 0Z" fill="#8a2b72"></path><path d="M0 -201.5C27 -182.3 54 -163.1 85.8 -148.7C117.7 -134.3 154.4 -124.7 174.5 -100.8C194.6 -76.8 198.1 -38.4 201.5 0L0 0Z" fill="#c62368"></path></g></svg>