<svg width="413" height="368" viewBox="0 0 413 368" fill="none" xmlns="http://www.w3.org/2000/svg">
<path d="M80.5 86C59.8873 103.811 53.9098 116.137 68 148.5C44.7556 122.004 31.2501 117.983 6 132.5C24.2243 177.684 39.1507 183.308 68 184C65.3541 220.381 70.6193 255.183 94.5 291C132.576 348.109 187.297 369.213 255.5 361.5C333.97 352.626 399.125 305.625 406.5 227C410.773 181.443 412.204 130.799 370.5 115.5C290.239 117.184 174.5 177.5 147.5 184C120.5 190.5 94.5 165.5 94.5 165.5C106.976 134.706 106.992 117.343 80.5 86Z" fill="#0085FF" stroke="#0085FF" stroke-width="8"/>
<ellipse cx="203.835" cy="225.414" rx="33.5281" ry="39.047" transform="rotate(-109 203.835 225.414)" fill="#D9D9D9"/>
<path d="M214.645 152.488L205.92 117.252C204.824 112.829 207.207 108.286 211.469 106.672L245.658 93.7268C250.827 91.7694 256.523 94.8911 257.654 100.302L265.369 137.202C266.3 141.654 263.763 146.1 259.457 147.565L226.278 158.846C221.286 160.543 215.912 157.605 214.645 152.488Z" stroke="#0085FF" stroke-width="18"/>
<path d="M288.645 125.488L279.92 90.2521C278.824 85.8292 281.207 81.2855 285.469 79.672L319.658 66.7268C324.827 64.7694 330.523 67.8911 331.654 73.3016L339.369 110.202C340.3 114.654 337.763 119.1 333.457 120.565L300.278 131.846C295.286 133.543 289.912 130.605 288.645 125.488Z" stroke="#0085FF" stroke-width="18"/>
<path d="M145.645 95.4878L136.92 60.2521C135.824 55.8292 138.207 51.2855 142.469 49.672L176.658 36.7268C181.827 34.7694 187.523 37.8911 188.654 43.3016L196.369 80.2017C197.3 84.6537 194.763 89.1005 190.457 90.5646L157.278 101.846C152.286 103.543 146.912 100.605 145.645 95.4878Z" stroke="#0085FF" stroke-width="18"/>
<path d="M219.645 68.4878L210.92 33.2521C209.824 28.8292 212.207 24.2855 216.469 22.672L250.658 9.72676C255.827 7.76942 261.523 10.8911 262.654 16.3016L270.369 53.2017C271.3 57.6537 268.763 62.1005 264.457 63.5646L231.278 74.8455C226.286 76.5426 220.912 73.6053 219.645 68.4878Z" stroke="#0085FF" stroke-width="18"/>
<path d="M140.645 179.488L131.92 144.252C130.824 139.829 133.207 135.286 137.469 133.672L171.658 120.727C176.827 118.769 182.523 121.891 183.654 127.302L191.369 164.202C192.3 168.654 189.763 173.1 185.457 174.565L152.278 185.846C147.286 187.543 141.912 184.605 140.645 179.488Z" stroke="#0085FF" stroke-width="18"/>
</svg>
