<svg width="379" height="379" viewBox="0 0 379 379" fill="none" xmlns="http://www.w3.org/2000/svg">
<rect width="379" height="379" rx="189.5" fill="#93E129"/>
<circle cx="189" cy="189.5" r="161" fill="#93E129"/>
<circle cx="190" cy="190" r="59" fill="#F9FFB3"/>
<rect x="178" y="108" width="48" height="24" rx="12" transform="rotate(-90 178 108)" fill="#3F3F3F"/>
<rect x="240" y="124.941" width="48" height="24" rx="12" transform="rotate(-45 240 124.941)" fill="#3F3F3F"/>
<rect x="256.971" y="238" width="48" height="24" rx="12" transform="rotate(45 256.971 238)" fill="#3F3F3F"/>
<rect x="105.971" y="91" width="48" height="24" rx="12" transform="rotate(45 105.971 91)" fill="#3F3F3F"/>
<rect x="89" y="271.941" width="48" height="24" rx="12" transform="rotate(-45 89 271.941)" fill="#3F3F3F"/>
<rect x="274" y="178" width="48" height="24" rx="12" fill="#3F3F3F"/>
<rect x="58" y="178" width="48" height="24" rx="12" fill="#3F3F3F"/>
<rect x="178" y="320" width="48" height="24" rx="12" transform="rotate(-90 178 320)" fill="#3F3F3F"/>
</svg>
