<svg id="visual" viewBox="0 0 900 900" width="900" height="900" xmlns="http://www.w3.org/2000/svg" xmlns:xlink="http://www.w3.org/1999/xlink" version="1.1"><path d="M0 217L30 212.5C60 208 120 199 180 188.5C240 178 300 166 360 170.5C420 175 480 196 540 197.5C600 199 660 181 720 172C780 163 840 163 870 163L900 163L900 0L870 0C840 0 780 0 720 0C660 0 600 0 540 0C480 0 420 0 360 0C300 0 240 0 180 0C120 0 60 0 30 0L0 0Z" fill="#ffa35e"></path><path d="M0 577L30 556C60 535 120 493 180 461.5C240 430 300 409 360 416.5C420 424 480 460 540 488.5C600 517 660 538 720 524.5C780 511 840 463 870 439L900 415L900 161L870 161C840 161 780 161 720 170C660 179 600 197 540 195.5C480 194 420 173 360 168.5C300 164 240 176 180 186.5C120 197 60 206 30 210.5L0 215Z" fill="#fa862f"></path><path d="M0 694L30 680.5C60 667 120 640 180 616C240 592 300 571 360 569.5C420 568 480 586 540 608.5C600 631 660 658 720 644.5C780 631 840 577 870 550L900 523L900 413L870 437C840 461 780 509 720 522.5C660 536 600 515 540 486.5C480 458 420 422 360 414.5C300 407 240 428 180 459.5C120 491 60 533 30 554L0 575Z" fill="#e16d0f"></path><path d="M0 901L30 901C60 901 120 901 180 901C240 901 300 901 360 901C420 901 480 901 540 901C600 901 660 901 720 901C780 901 840 901 870 901L900 901L900 521L870 548C840 575 780 629 720 642.5C660 656 600 629 540 606.5C480 584 420 566 360 567.5C300 569 240 590 180 614C120 638 60 665 30 678.5L0 692Z" fill="#b5580e"></path></svg>