<svg id="visual" viewBox="0 0 900 900" width="900" height="900" xmlns="http://www.w3.org/2000/svg" xmlns:xlink="http://www.w3.org/1999/xlink" version="1.1"><path d="M0 154L30 157C60 160 120 166 180 164.5C240 163 300 154 360 142C420 130 480 115 540 110.5C600 106 660 112 720 119.5C780 127 840 136 870 140.5L900 145L900 0L870 0C840 0 780 0 720 0C660 0 600 0 540 0C480 0 420 0 360 0C300 0 240 0 180 0C120 0 60 0 30 0L0 0Z" fill="#a067ff"></path><path d="M0 361L30 379C60 397 120 433 180 454C240 475 300 481 360 478C420 475 480 463 540 446.5C600 430 660 409 720 406C780 403 840 418 870 425.5L900 433L900 143L870 138.5C840 134 780 125 720 117.5C660 110 600 104 540 108.5C480 113 420 128 360 140C300 152 240 161 180 162.5C120 164 60 158 30 155L0 152Z" fill="#7c33ff"></path><path d="M0 586L30 587.5C60 589 120 592 180 601C240 610 300 625 360 634C420 643 480 646 540 626.5C600 607 660 565 720 553C780 541 840 559 870 568L900 577L900 431L870 423.5C840 416 780 401 720 404C660 407 600 428 540 444.5C480 461 420 473 360 476C300 479 240 473 180 452C120 431 60 395 30 377L0 359Z" fill="#5d01e8"></path><path d="M0 901L30 901C60 901 120 901 180 901C240 901 300 901 360 901C420 901 480 901 540 901C600 901 660 901 720 901C780 901 840 901 870 901L900 901L900 575L870 566C840 557 780 539 720 551C660 563 600 605 540 624.5C480 644 420 641 360 632C300 623 240 608 180 599C120 590 60 587 30 585.5L0 584Z" fill="#4b03ba"></path></svg>