<svg width="388" height="383" viewBox="0 0 388 383" fill="none" xmlns="http://www.w3.org/2000/svg">
<path d="M103 20C83.8066 43.0266 81.2778 57.8699 103 90.5C136.78 74.7266 155.719 77.2009 189.5 90.5V108.5C120.844 98.4524 82.7252 96.2752 16.5001 108.5C-4.5088 169.87 -6.04802 205.964 16.5001 274.5C44.676 299.473 61.4049 295.564 92.0002 274.5C72.9828 235.172 68.5003 202 92.0002 181.5C115.5 161 242.126 214.004 272.5 181.5C302.874 148.996 293.569 25.1999 272.5 20C206.477 -6.17952 169.101 -6.58062 103 20Z" fill="#3670A0"/>
<path d="M284.946 362.795C304.14 339.769 306.669 324.925 284.946 292.295C251.166 308.068 232.227 305.594 198.446 292.295V274.295C267.102 284.343 305.221 286.52 371.446 274.295C392.455 212.925 393.994 176.831 371.446 108.295C343.27 83.322 326.541 87.2306 295.946 108.295C314.963 147.623 319.446 180.795 295.946 201.295C272.446 221.795 145.82 168.791 115.446 201.295C85.0719 233.799 94.3768 357.595 115.446 362.795C181.47 388.975 218.845 389.376 284.946 362.795Z" fill="#FFCE3F"/>
<circle cx="128" cy="48" r="23" fill="white"/>
<circle cx="265" cy="333" r="23" fill="white"/>
</svg>
