<svg width="364" height="418" viewBox="0 0 364 418" fill="none" xmlns="http://www.w3.org/2000/svg">
<path d="M54.0798 394.741C20.3316 365.979 5 292.307 5 292.307C5 292.307 36.2699 274.914 54.0798 282.899C80.0848 294.559 65.5675 355.021 65.5675 355.021H216.987C216.987 355.021 122.349 269.676 113.535 196.144C109.34 161.139 121.89 106.253 121.89 106.253L216.987 282.899L207.521 8C207.521 8 361.675 108.801 359.986 206.597C358.563 289.002 246.227 384.288 246.227 384.288C246.227 384.288 111.297 443.504 54.0798 394.741Z" fill="#F75400" stroke="#F75400" stroke-width="8"/>
<ellipse cx="314.543" cy="166.838" rx="26.3965" ry="59.269" transform="rotate(-23 314.543 166.838)" fill="#FFA476"/>
<ellipse cx="267.088" cy="84.404" rx="14.8252" ry="13.275" transform="rotate(-23 267.088 84.404)" fill="#FFA476"/>
</svg>
