<svg width="402" height="402" viewBox="0 0 402 402" fill="none" xmlns="http://www.w3.org/2000/svg">
<path fill-rule="evenodd" clip-rule="evenodd" d="M232.317 26.4939C243.643 15.1687 262.004 15.1687 273.33 26.4939L299.493 52.6571L306.476 59.6404L341.838 95.0025L351.112 104.276L375.86 129.024C387.185 140.35 387.185 158.711 375.86 170.037L353.233 192.664C342.329 203.568 324.903 203.974 313.514 193.882L282.348 302.681C281.697 304.955 280.801 307.058 279.704 308.981C276.392 315.54 270.484 320.886 262.453 323.186L53.7451 382.971C48.0415 384.605 42.4535 384.374 37.453 382.751L131.288 289.888C137.995 293.51 145.672 295.566 153.829 295.566C180.062 295.566 201.329 274.3 201.329 248.066C201.329 221.833 180.062 200.566 153.829 200.566C127.595 200.566 106.329 221.833 106.329 248.066C106.329 255.951 108.25 263.386 111.649 269.93L18.623 361.992C17.69 357.7 17.7657 353.061 19.1171 348.343L78.902 139.636C79.5533 137.362 80.4486 135.259 81.5464 133.336C84.8579 126.777 90.7662 121.431 98.7973 119.131L207.702 87.9345C198.409 76.544 199.072 59.7398 209.69 49.1213L232.317 26.4939Z" fill="#FFC700"/>
<path fill-rule="evenodd" clip-rule="evenodd" d="M325.308 79L341.385 95.0769L350.659 104.35L375.407 129.099C386.732 140.424 386.732 158.786 375.407 170.111L352.78 192.738C341.876 203.642 324.45 204.048 313.061 193.956L281.895 302.756C281.244 305.029 280.348 307.132 279.251 309.055C275.939 315.614 270.031 320.96 262 323.261L53.2921 383.046C47.5885 384.679 42.0005 384.449 37 382.825L130.835 289.962C137.542 293.585 145.219 295.641 153.376 295.641C179.609 295.641 200.876 274.374 200.876 248.141C200.876 235.734 196.119 224.438 188.33 215.978L325.308 79Z" fill="#D0A300"/>
</svg>
