<svg id="visual" viewBox="0 0 900 900" width="900" height="900" xmlns="http://www.w3.org/2000/svg" xmlns:xlink="http://www.w3.org/1999/xlink" version="1.1"><rect x="0" y="0" width="900" height="900" fill="#001220"></rect><defs><linearGradient id="grad1_0" x1="0%" y1="0%" x2="100%" y2="100%"><stop offset="30%" stop-color="#001220" stop-opacity="1"></stop><stop offset="70%" stop-color="#001220" stop-opacity="1"></stop></linearGradient></defs><defs><linearGradient id="grad2_0" x1="0%" y1="0%" x2="100%" y2="100%"><stop offset="30%" stop-color="#001220" stop-opacity="1"></stop><stop offset="70%" stop-color="#001220" stop-opacity="1"></stop></linearGradient></defs><g transform="translate(900, 0)"><path d="M0 572.8C-78.4 560.4 -156.9 548 -209.7 506.3C-262.5 464.6 -289.8 393.7 -345.8 345.8C-401.8 297.9 -486.5 273 -529.2 219.2C-571.8 165.4 -572.3 82.7 -572.8 0L0 0Z" fill="#FBAE3C"></path></g><g transform="translate(0, 900)"><path d="M0 -572.8C59.5 -527.9 119 -483 191.3 -461.9C263.7 -440.9 349 -443.7 405 -405C461 -366.3 487.8 -286 510.9 -211.6C534 -137.2 553.4 -68.6 572.8 0L0 0Z" fill="#FBAE3C"></path></g></svg>