<svg id="visual" viewBox="0 0 900 900" width="900" height="900" xmlns="http://www.w3.org/2000/svg" xmlns:xlink="http://www.w3.org/1999/xlink" version="1.1"><path d="M0 181L30 181C60 181 120 181 180 187C240 193 300 205 360 214C420 223 480 229 540 215.5C600 202 660 169 720 161.5C780 154 840 172 870 181L900 190L900 0L870 0C840 0 780 0 720 0C660 0 600 0 540 0C480 0 420 0 360 0C300 0 240 0 180 0C120 0 60 0 30 0L0 0Z" fill="#da6a94"></path><path d="M0 532L30 518.5C60 505 120 478 180 475C240 472 300 493 360 490C420 487 480 460 540 448C600 436 660 439 720 439C780 439 840 436 870 434.5L900 433L900 188L870 179C840 170 780 152 720 159.5C660 167 600 200 540 213.5C480 227 420 221 360 212C300 203 240 191 180 185C120 179 60 179 30 179L0 179Z" fill="#cd4077"></path><path d="M0 757L30 752.5C60 748 120 739 180 736C240 733 300 736 360 748C420 760 480 781 540 791.5C600 802 660 802 720 794.5C780 787 840 772 870 764.5L900 757L900 431L870 432.5C840 434 780 437 720 437C660 437 600 434 540 446C480 458 420 485 360 488C300 491 240 470 180 473C120 476 60 503 30 516.5L0 530Z" fill="#b4205f"></path><path d="M0 901L30 901C60 901 120 901 180 901C240 901 300 901 360 901C420 901 480 901 540 901C600 901 660 901 720 901C780 901 840 901 870 901L900 901L900 755L870 762.5C840 770 780 785 720 792.5C660 800 600 800 540 789.5C480 779 420 758 360 746C300 734 240 731 180 734C120 737 60 746 30 750.5L0 755Z" fill="#911b4d"></path></svg>